<mxfile host="app.diagrams.net" modified="2023-07-16T04:41:44.636Z" agent="Mozilla/5.0 (Macintosh; Intel Mac OS X 10_15_7) AppleWebKit/537.36 (KHTML, like Gecko) Chrome/114.0.0.0 Safari/537.36" etag="4h_aqu7SQTQk-6wrvmy0" version="21.6.2" type="github">
  <diagram id="iBte2pI2jz2rYQuNefFY" name="第 1 页">
    <mxGraphModel dx="954" dy="616" grid="1" gridSize="10" guides="1" tooltips="1" connect="1" arrows="1" fold="1" page="1" pageScale="1" pageWidth="827" pageHeight="1169" math="0" shadow="0">
      <root>
        <mxCell id="0" />
        <mxCell id="1" parent="0" />
        <mxCell id="woK0yzQSYLWEiJonhJk_-3" value="客户端" style="outlineConnect=0;dashed=0;verticalLabelPosition=bottom;verticalAlign=top;align=center;html=1;shape=mxgraph.aws3.mqtt_protocol;fillColor=#5294CF;gradientColor=none;" parent="1" vertex="1">
          <mxGeometry x="417.5" y="327" width="63" height="66" as="geometry" />
        </mxCell>
        <mxCell id="woK0yzQSYLWEiJonhJk_-5" value="" style="rounded=1;whiteSpace=wrap;html=1;absoluteArcSize=1;arcSize=14;strokeWidth=2;fillColor=#b0e3e6;strokeColor=#0e8088;" parent="1" vertex="1">
          <mxGeometry x="260" y="452" width="690" height="400" as="geometry" />
        </mxCell>
        <mxCell id="woK0yzQSYLWEiJonhJk_-6" value="&lt;b&gt;&lt;font style=&quot;font-size: 24px;&quot;&gt;MQTT 网关&lt;/font&gt;&lt;/b&gt;" style="text;html=1;strokeColor=none;fillColor=none;align=center;verticalAlign=middle;whiteSpace=wrap;rounded=0;" parent="1" vertex="1">
          <mxGeometry x="249" y="417" width="151" height="35" as="geometry" />
        </mxCell>
        <mxCell id="woK0yzQSYLWEiJonhJk_-31" style="edgeStyle=orthogonalEdgeStyle;rounded=0;orthogonalLoop=1;jettySize=auto;html=1;entryX=0;entryY=0.5;entryDx=0;entryDy=0;shape=flexArrow;dashed=1;exitX=1;exitY=0.5;exitDx=0;exitDy=0;" parent="1" source="woK0yzQSYLWEiJonhJk_-7" target="woK0yzQSYLWEiJonhJk_-26" edge="1">
          <mxGeometry relative="1" as="geometry" />
        </mxCell>
        <mxCell id="woK0yzQSYLWEiJonhJk_-7" value="" style="rounded=1;whiteSpace=wrap;html=1;fillColor=#b1ddf0;strokeColor=#10739e;" parent="1" vertex="1">
          <mxGeometry x="273.5" y="470" width="376.5" height="210" as="geometry" />
        </mxCell>
        <mxCell id="woK0yzQSYLWEiJonhJk_-9" value="&lt;b&gt;MQTT Connection Session&lt;/b&gt;" style="text;html=1;strokeColor=none;fillColor=none;align=center;verticalAlign=middle;whiteSpace=wrap;rounded=0;" parent="1" vertex="1">
          <mxGeometry x="278" y="446" width="160" height="29" as="geometry" />
        </mxCell>
        <mxCell id="woK0yzQSYLWEiJonhJk_-37" style="edgeStyle=orthogonalEdgeStyle;rounded=0;orthogonalLoop=1;jettySize=auto;html=1;entryX=0.5;entryY=0;entryDx=0;entryDy=0;strokeColor=#3333FF;" parent="1" source="woK0yzQSYLWEiJonhJk_-10" target="woK0yzQSYLWEiJonhJk_-35" edge="1">
          <mxGeometry relative="1" as="geometry" />
        </mxCell>
        <mxCell id="woK0yzQSYLWEiJonhJk_-10" value="" style="rounded=1;whiteSpace=wrap;html=1;fillColor=#fff2cc;strokeColor=#d6b656;gradientColor=#ffd966;" parent="1" vertex="1">
          <mxGeometry x="411" y="470" width="96" height="50" as="geometry" />
        </mxCell>
        <mxCell id="woK0yzQSYLWEiJonhJk_-72" style="edgeStyle=orthogonalEdgeStyle;rounded=0;orthogonalLoop=1;jettySize=auto;html=1;entryX=1;entryY=1;entryDx=0;entryDy=0;entryPerimeter=0;strokeColor=#FF3333;exitX=0.75;exitY=0;exitDx=0;exitDy=0;" parent="1" source="woK0yzQSYLWEiJonhJk_-10" target="woK0yzQSYLWEiJonhJk_-3" edge="1">
          <mxGeometry relative="1" as="geometry">
            <Array as="points">
              <mxPoint x="480" y="470" />
            </Array>
          </mxGeometry>
        </mxCell>
        <mxCell id="QxR6OnLQPa4rLAfjmDMy-38" value="&lt;font color=&quot;#ff3333&quot;&gt;下行&lt;/font&gt;" style="edgeLabel;html=1;align=center;verticalAlign=middle;resizable=0;points=[];" vertex="1" connectable="0" parent="woK0yzQSYLWEiJonhJk_-72">
          <mxGeometry x="0.2453" y="2" relative="1" as="geometry">
            <mxPoint x="1" y="1" as="offset" />
          </mxGeometry>
        </mxCell>
        <mxCell id="woK0yzQSYLWEiJonhJk_-11" value="Connection" style="text;html=1;strokeColor=none;fillColor=none;align=center;verticalAlign=middle;whiteSpace=wrap;rounded=0;" parent="1" vertex="1">
          <mxGeometry x="417.5" y="480" width="81" height="30" as="geometry" />
        </mxCell>
        <mxCell id="woK0yzQSYLWEiJonhJk_-13" style="edgeStyle=orthogonalEdgeStyle;rounded=0;orthogonalLoop=1;jettySize=auto;html=1;strokeColor=#0000FF;" parent="1" source="woK0yzQSYLWEiJonhJk_-3" edge="1">
          <mxGeometry relative="1" as="geometry">
            <mxPoint x="450" y="470" as="targetPoint" />
            <Array as="points">
              <mxPoint x="449" y="440" />
              <mxPoint x="449" y="440" />
            </Array>
          </mxGeometry>
        </mxCell>
        <mxCell id="woK0yzQSYLWEiJonhJk_-14" value="&lt;b&gt;&lt;font color=&quot;#3333ff&quot;&gt;上行&lt;/font&gt;&lt;/b&gt;" style="edgeLabel;html=1;align=center;verticalAlign=middle;resizable=0;points=[];" parent="woK0yzQSYLWEiJonhJk_-13" vertex="1" connectable="0">
          <mxGeometry x="-0.3365" y="-2" relative="1" as="geometry">
            <mxPoint as="offset" />
          </mxGeometry>
        </mxCell>
        <mxCell id="woK0yzQSYLWEiJonhJk_-51" style="edgeStyle=orthogonalEdgeStyle;rounded=0;orthogonalLoop=1;jettySize=auto;html=1;exitX=1;exitY=0.75;exitDx=0;exitDy=0;strokeColor=#3333FF;entryX=0.5;entryY=0;entryDx=0;entryDy=0;" parent="1" source="woK0yzQSYLWEiJonhJk_-15" target="woK0yzQSYLWEiJonhJk_-55" edge="1">
          <mxGeometry relative="1" as="geometry">
            <mxPoint x="470" y="710" as="targetPoint" />
          </mxGeometry>
        </mxCell>
        <mxCell id="woK0yzQSYLWEiJonhJk_-69" style="edgeStyle=orthogonalEdgeStyle;rounded=0;orthogonalLoop=1;jettySize=auto;html=1;entryX=0;entryY=0.5;entryDx=0;entryDy=0;exitX=0.5;exitY=0;exitDx=0;exitDy=0;strokeColor=#FF3333;" parent="1" source="woK0yzQSYLWEiJonhJk_-15" target="woK0yzQSYLWEiJonhJk_-35" edge="1">
          <mxGeometry relative="1" as="geometry" />
        </mxCell>
        <mxCell id="woK0yzQSYLWEiJonhJk_-15" value="标准协议包" style="rounded=1;whiteSpace=wrap;html=1;fillColor=#d0cee2;strokeColor=#56517e;" parent="1" vertex="1">
          <mxGeometry x="290" y="633" width="96" height="46" as="geometry" />
        </mxCell>
        <mxCell id="woK0yzQSYLWEiJonhJk_-70" style="edgeStyle=orthogonalEdgeStyle;rounded=0;orthogonalLoop=1;jettySize=auto;html=1;entryX=1;entryY=0.5;entryDx=0;entryDy=0;exitX=0.5;exitY=0;exitDx=0;exitDy=0;strokeColor=#FF3333;" parent="1" source="woK0yzQSYLWEiJonhJk_-16" target="woK0yzQSYLWEiJonhJk_-35" edge="1">
          <mxGeometry relative="1" as="geometry" />
        </mxCell>
        <mxCell id="woK0yzQSYLWEiJonhJk_-16" value="自定义协议包&lt;br&gt;1...n" style="rounded=1;whiteSpace=wrap;html=1;fillColor=#d0cee2;strokeColor=#56517e;" parent="1" vertex="1">
          <mxGeometry x="540" y="630" width="96" height="50" as="geometry" />
        </mxCell>
        <mxCell id="woK0yzQSYLWEiJonhJk_-50" style="edgeStyle=orthogonalEdgeStyle;rounded=0;orthogonalLoop=1;jettySize=auto;html=1;exitX=0;exitY=0.75;exitDx=0;exitDy=0;entryX=0.5;entryY=0;entryDx=0;entryDy=0;strokeColor=#0000FF;" parent="1" source="woK0yzQSYLWEiJonhJk_-16" target="woK0yzQSYLWEiJonhJk_-55" edge="1">
          <mxGeometry relative="1" as="geometry" />
        </mxCell>
        <mxCell id="woK0yzQSYLWEiJonhJk_-25" value="" style="shape=line;strokeColor=#dddddd;" parent="1" vertex="1">
          <mxGeometry x="430" y="235" width="700" height="10" as="geometry" />
        </mxCell>
        <mxCell id="woK0yzQSYLWEiJonhJk_-26" value="&lt;span style=&quot;background-color: rgb(176, 227, 230);&quot;&gt;1.&amp;nbsp; &lt;font style=&quot;font-size: 12px;&quot;&gt;接受Mqtt Connection，接受CONNECT报文，绑定平台设备协议包配置和&lt;/font&gt;&lt;br&gt;&lt;span style=&quot;font-family: Arial, Helvetica; font-size: 12px; text-align: center;&quot;&gt;2.&amp;nbsp; &amp;nbsp;处理Mqtt Connection 上报的消息报文解析为平台MQTT消息报文，根据设备绑定协议包，&lt;/span&gt;&lt;span style=&quot;font-family: Arial, Helvetica; font-size: 12px; text-align: center;&quot;&gt;&amp;nbsp;将MQTT消息报文通过协议包进行decode解码器为平台业务模型，将消息流转到业务处理模块&lt;br&gt;3. 处理平台下行业务模型，根据设备绑定协议包，将业务模型编码enocde为平台MQTT消息报文，利用Connection将消息下发到设备&lt;br&gt;&lt;/span&gt;&lt;/span&gt;" style="strokeColor=none;fillColor=none;whiteSpace=wrap;html=1;align=left;verticalAlign=top;fontSize=14;" parent="1" vertex="1">
          <mxGeometry x="727" y="470.5" width="193" height="209.5" as="geometry" />
        </mxCell>
        <mxCell id="woK0yzQSYLWEiJonhJk_-42" style="edgeStyle=orthogonalEdgeStyle;rounded=0;orthogonalLoop=1;jettySize=auto;html=1;entryX=1;entryY=0.5;entryDx=0;entryDy=0;exitX=0.5;exitY=1;exitDx=0;exitDy=0;strokeColor=#3333FF;" parent="1" source="woK0yzQSYLWEiJonhJk_-35" target="woK0yzQSYLWEiJonhJk_-15" edge="1">
          <mxGeometry relative="1" as="geometry" />
        </mxCell>
        <mxCell id="woK0yzQSYLWEiJonhJk_-43" style="edgeStyle=orthogonalEdgeStyle;rounded=0;orthogonalLoop=1;jettySize=auto;html=1;entryX=0;entryY=0.5;entryDx=0;entryDy=0;exitX=0.5;exitY=1;exitDx=0;exitDy=0;strokeColor=#3333FF;" parent="1" source="woK0yzQSYLWEiJonhJk_-35" target="woK0yzQSYLWEiJonhJk_-16" edge="1">
          <mxGeometry relative="1" as="geometry" />
        </mxCell>
        <mxCell id="woK0yzQSYLWEiJonhJk_-62" style="edgeStyle=orthogonalEdgeStyle;rounded=0;orthogonalLoop=1;jettySize=auto;html=1;entryX=0;entryY=0.5;entryDx=0;entryDy=0;shape=flexArrow;dashed=1;exitX=1;exitY=0.5;exitDx=0;exitDy=0;" parent="1" source="woK0yzQSYLWEiJonhJk_-32" target="woK0yzQSYLWEiJonhJk_-61" edge="1">
          <mxGeometry relative="1" as="geometry">
            <mxPoint x="650" y="767" as="sourcePoint" />
          </mxGeometry>
        </mxCell>
        <mxCell id="woK0yzQSYLWEiJonhJk_-32" value="" style="rounded=1;whiteSpace=wrap;html=1;fillColor=#99FFFF;strokeColor=#b46504;" parent="1" vertex="1">
          <mxGeometry x="269.5" y="710" width="386.5" height="130" as="geometry" />
        </mxCell>
        <mxCell id="woK0yzQSYLWEiJonhJk_-71" style="edgeStyle=orthogonalEdgeStyle;rounded=0;orthogonalLoop=1;jettySize=auto;html=1;entryX=0.5;entryY=1;entryDx=0;entryDy=0;strokeColor=#FF3333;" parent="1" edge="1">
          <mxGeometry relative="1" as="geometry">
            <mxPoint x="482" y="550" as="sourcePoint" />
            <mxPoint x="482" y="520" as="targetPoint" />
          </mxGeometry>
        </mxCell>
        <mxCell id="woK0yzQSYLWEiJonhJk_-35" value="平台MQTT消息&lt;br&gt;模型" style="rounded=1;whiteSpace=wrap;html=1;fillColor=#fad7ac;strokeColor=#b46504;" parent="1" vertex="1">
          <mxGeometry x="411" y="550" width="96" height="50" as="geometry" />
        </mxCell>
        <mxCell id="woK0yzQSYLWEiJonhJk_-45" value="&lt;span style=&quot;color: rgb(0, 0, 0); font-family: Arial, Helvetica; font-size: 11px; font-style: normal; font-variant-ligatures: normal; font-variant-caps: normal; font-weight: 400; letter-spacing: normal; orphans: 2; text-align: center; text-indent: 0px; text-transform: none; widows: 2; word-spacing: 0px; -webkit-text-stroke-width: 0px; text-decoration-thickness: initial; text-decoration-style: initial; text-decoration-color: initial; float: none; display: inline !important; background-color: rgb(176, 227, 230);&quot;&gt;协议包解析decode报文&lt;/span&gt;" style="text;html=1;strokeColor=none;fillColor=none;align=center;verticalAlign=middle;whiteSpace=wrap;rounded=0;" parent="1" vertex="1">
          <mxGeometry x="426" y="616" width="72" height="30" as="geometry" />
        </mxCell>
        <mxCell id="woK0yzQSYLWEiJonhJk_-58" style="edgeStyle=orthogonalEdgeStyle;rounded=0;orthogonalLoop=1;jettySize=auto;html=1;exitX=0;exitY=0.5;exitDx=0;exitDy=0;strokeColor=#0000FF;" parent="1" source="woK0yzQSYLWEiJonhJk_-55" target="woK0yzQSYLWEiJonhJk_-57" edge="1">
          <mxGeometry relative="1" as="geometry" />
        </mxCell>
        <mxCell id="woK0yzQSYLWEiJonhJk_-67" style="edgeStyle=orthogonalEdgeStyle;rounded=0;orthogonalLoop=1;jettySize=auto;html=1;entryX=0.5;entryY=1;entryDx=0;entryDy=0;exitX=0.5;exitY=0;exitDx=0;exitDy=0;strokeColor=#FF3333;" parent="1" source="woK0yzQSYLWEiJonhJk_-55" target="woK0yzQSYLWEiJonhJk_-16" edge="1">
          <mxGeometry relative="1" as="geometry">
            <Array as="points">
              <mxPoint x="463" y="700" />
              <mxPoint x="588" y="700" />
            </Array>
          </mxGeometry>
        </mxCell>
        <mxCell id="woK0yzQSYLWEiJonhJk_-68" style="edgeStyle=orthogonalEdgeStyle;rounded=0;orthogonalLoop=1;jettySize=auto;html=1;entryX=0.155;entryY=0.995;entryDx=0;entryDy=0;entryPerimeter=0;strokeColor=#FF3333;" parent="1" source="woK0yzQSYLWEiJonhJk_-55" target="woK0yzQSYLWEiJonhJk_-7" edge="1">
          <mxGeometry relative="1" as="geometry">
            <Array as="points">
              <mxPoint x="463" y="700" />
              <mxPoint x="332" y="700" />
            </Array>
          </mxGeometry>
        </mxCell>
        <mxCell id="woK0yzQSYLWEiJonhJk_-55" value="平台业务模型" style="rounded=1;whiteSpace=wrap;html=1;fillColor=#ffcc99;strokeColor=#36393d;" parent="1" vertex="1">
          <mxGeometry x="403" y="710" width="120" height="60" as="geometry" />
        </mxCell>
        <mxCell id="woK0yzQSYLWEiJonhJk_-56" value="&lt;b&gt;平台业务&lt;/b&gt;" style="text;html=1;strokeColor=none;fillColor=none;align=center;verticalAlign=middle;whiteSpace=wrap;rounded=0;" parent="1" vertex="1">
          <mxGeometry x="273.5" y="690" width="66.5" height="30" as="geometry" />
        </mxCell>
        <mxCell id="woK0yzQSYLWEiJonhJk_-57" value="平台数据处理" style="rounded=1;whiteSpace=wrap;html=1;fillColor=#e1d5e7;strokeColor=#9673a6;" parent="1" vertex="1">
          <mxGeometry x="279" y="810" width="91" height="29" as="geometry" />
        </mxCell>
        <mxCell id="woK0yzQSYLWEiJonhJk_-60" style="edgeStyle=orthogonalEdgeStyle;rounded=0;orthogonalLoop=1;jettySize=auto;html=1;entryX=0.5;entryY=1;entryDx=0;entryDy=0;exitX=0.5;exitY=0;exitDx=0;exitDy=0;strokeColor=#FF3333;" parent="1" source="woK0yzQSYLWEiJonhJk_-59" target="woK0yzQSYLWEiJonhJk_-55" edge="1">
          <mxGeometry relative="1" as="geometry" />
        </mxCell>
        <mxCell id="woK0yzQSYLWEiJonhJk_-59" value="平台功能调用" style="rounded=1;whiteSpace=wrap;html=1;fillColor=#e1d5e7;strokeColor=#9673a6;" parent="1" vertex="1">
          <mxGeometry x="423" y="810" width="80" height="30" as="geometry" />
        </mxCell>
        <mxCell id="woK0yzQSYLWEiJonhJk_-61" value="&lt;span style=&quot;background-color: rgb(176, 227, 230);&quot;&gt;&lt;span style=&quot;font-family: Arial, Helvetica; font-size: 12px; text-align: center;&quot;&gt;1.&amp;nbsp; 提供配置配置管理，动态增加协议包，关联设备和解析协议包&lt;br&gt;2. 平台提供上行业务数据处理能力：规则引擎，数据预处理，多云交互，数据存储等业务功能&lt;br&gt;3. 平台提供下行功能调用能力&lt;br&gt;&lt;br&gt;&lt;/span&gt;&lt;/span&gt;" style="strokeColor=none;fillColor=none;whiteSpace=wrap;html=1;align=left;verticalAlign=top;fontSize=14;" parent="1" vertex="1">
          <mxGeometry x="720" y="705" width="200" height="140" as="geometry" />
        </mxCell>
        <mxCell id="woK0yzQSYLWEiJonhJk_-64" value="属性上报" style="strokeWidth=2;html=1;shape=mxgraph.flowchart.start_2;whiteSpace=wrap;" parent="1" vertex="1">
          <mxGeometry x="340" y="1754" width="100" height="100" as="geometry" />
        </mxCell>
        <mxCell id="woK0yzQSYLWEiJonhJk_-65" value="ota升级" style="strokeWidth=2;html=1;shape=mxgraph.flowchart.start_2;whiteSpace=wrap;" parent="1" vertex="1">
          <mxGeometry x="582" y="1764" width="100" height="100" as="geometry" />
        </mxCell>
        <mxCell id="woK0yzQSYLWEiJonhJk_-66" value="指令下发" style="strokeWidth=2;html=1;shape=mxgraph.flowchart.start_2;whiteSpace=wrap;" parent="1" vertex="1">
          <mxGeometry x="852" y="1754" width="100" height="100" as="geometry" />
        </mxCell>
        <mxCell id="j2j0sg28cAgT2Ne_cbJ5-1" value="协议包管理" style="rounded=1;whiteSpace=wrap;html=1;fillColor=#d80073;strokeColor=#A50040;fontColor=#ffffff;" parent="1" vertex="1">
          <mxGeometry x="545" y="809" width="102" height="30" as="geometry" />
        </mxCell>
        <mxCell id="QxR6OnLQPa4rLAfjmDMy-37" value="设备配置管理" style="rounded=1;whiteSpace=wrap;html=1;fillColor=#d80073;strokeColor=#A50040;fontColor=#ffffff;" vertex="1" parent="1">
          <mxGeometry x="545" y="760" width="102" height="30" as="geometry" />
        </mxCell>
        <mxCell id="QxR6OnLQPa4rLAfjmDMy-39" value="图1 MQTT网关" style="text;html=1;strokeColor=none;fillColor=none;align=center;verticalAlign=middle;whiteSpace=wrap;rounded=0;" vertex="1" parent="1">
          <mxGeometry x="566" y="852" width="94" height="28" as="geometry" />
        </mxCell>
        <mxCell id="QxR6OnLQPa4rLAfjmDMy-44" value="&lt;span style=&quot;font-size: 15px; background-color: rgb(208, 206, 226);&quot;&gt;平台MQTT消息(MqttModel)：&lt;br&gt;&lt;b&gt;deviceId：&lt;/b&gt;平台设备标识，对应CONNECT包中的clientId&lt;br&gt;&lt;b&gt;topic&lt;/b&gt;：消息发送的主题，对应PUBLISH包中的消息主题&lt;br&gt;&lt;b&gt;qos&lt;/b&gt;：消息服务质量，对应PUBLISH包中的Qos服务质量&lt;br&gt;&lt;b&gt;payload&lt;/b&gt;：消息载荷，对应客户端上报的应用数据&lt;/span&gt;" style="text;html=1;align=left;verticalAlign=middle;whiteSpace=wrap;rounded=0;fillColor=#D0CEE2;strokeColor=#56517e;" vertex="1" parent="1">
          <mxGeometry x="340" y="928" width="470" height="100" as="geometry" />
        </mxCell>
        <mxCell id="QxR6OnLQPa4rLAfjmDMy-45" value="图2 平台MQTT消息" style="text;html=1;strokeColor=none;fillColor=none;align=center;verticalAlign=middle;whiteSpace=wrap;rounded=0;" vertex="1" parent="1">
          <mxGeometry x="525" y="1027" width="110" height="30" as="geometry" />
        </mxCell>
        <mxCell id="QxR6OnLQPa4rLAfjmDMy-47" value="&lt;p style=&quot;text-align: center; margin: 4px 0px 0px; font-size: 14px;&quot;&gt;&lt;b style=&quot;&quot;&gt;&lt;font style=&quot;font-size: 14px;&quot;&gt;DataParseCodec&lt;/font&gt;&lt;/b&gt;&lt;/p&gt;&lt;p style=&quot;text-align: center; margin: 4px 0px 0px; font-size: 14px;&quot;&gt;&lt;b style=&quot;&quot;&gt;&lt;font style=&quot;font-size: 14px;&quot;&gt;数据解析编解码器&lt;/font&gt;&lt;/b&gt;&lt;br&gt;&lt;/p&gt;&lt;hr size=&quot;1&quot;&gt;&amp;nbsp; //解析器唯一标识，用于映射和查找&lt;br&gt;&lt;p style=&quot;margin:0px;margin-left:4px;&quot;&gt;&lt;b&gt;&lt;font style=&quot;font-size: 14px;&quot;&gt;+ identifer(): String&amp;nbsp;&lt;/font&gt;&lt;/b&gt;&amp;nbsp;&lt;/p&gt;&lt;p style=&quot;margin:0px;margin-left:4px;&quot;&gt;&amp;nbsp;// 解析器自定义数据解析将上报的消息解析为平台的业务模型&lt;br&gt;&lt;b&gt;&lt;font style=&quot;font-size: 14px;&quot;&gt;+ encode(MqttModel): DeviceMessage&amp;nbsp;&lt;/font&gt;&lt;/b&gt;&lt;/p&gt;&lt;p style=&quot;margin:0px;margin-left:4px;&quot;&gt;// 解析器自定义数据编码将下行的平台业务数据编码为平台MQTT消息&lt;br&gt;&lt;/p&gt;&lt;p style=&quot;margin:0px;margin-left:4px;&quot;&gt;&lt;b&gt;&lt;font style=&quot;font-size: 14px;&quot;&gt;+ encode(DeviceMessage): MqttModel&amp;nbsp;&lt;/font&gt;&lt;/b&gt;&lt;br&gt;&lt;/p&gt;&lt;p style=&quot;margin:0px;margin-left:4px;&quot;&gt;&lt;br&gt;&lt;/p&gt;&lt;p style=&quot;margin:0px;margin-left:4px;&quot;&gt;&lt;br&gt;&lt;/p&gt;" style="verticalAlign=top;align=left;overflow=fill;fontSize=12;fontFamily=Helvetica;html=1;whiteSpace=wrap;" vertex="1" parent="1">
          <mxGeometry x="490" y="1348" width="396" height="160" as="geometry" />
        </mxCell>
        <mxCell id="QxR6OnLQPa4rLAfjmDMy-48" value="&lt;p style=&quot;text-align: center; margin: 4px 0px 0px; font-size: 14px;&quot;&gt;&lt;b style=&quot;&quot;&gt;&lt;font style=&quot;font-size: 14px;&quot;&gt;DeviceMessage&lt;/font&gt;&lt;/b&gt;&lt;/p&gt;&lt;p style=&quot;text-align: center; margin: 4px 0px 0px; font-size: 14px;&quot;&gt;&lt;b style=&quot;&quot;&gt;&lt;font style=&quot;font-size: 14px;&quot;&gt;平台业务模型接口&lt;/font&gt;&lt;/b&gt;&lt;/p&gt;&lt;hr size=&quot;1&quot;&gt;&lt;p style=&quot;margin:0px;margin-left:4px;&quot;&gt;// 平台业务数据关联的设备&lt;br&gt;&lt;/p&gt;&lt;p style=&quot;margin:0px;margin-left:4px;&quot;&gt;&lt;b&gt;&lt;font style=&quot;font-size: 14px;&quot;&gt;+ deviceId(): String&amp;nbsp;&lt;/font&gt;&lt;/b&gt;&lt;br&gt;// 时间戳&lt;br&gt;&lt;/p&gt;&lt;p style=&quot;margin:0px;margin-left:4px;&quot;&gt;&lt;b&gt;&lt;font style=&quot;font-size: 14px;&quot;&gt;+ timestap():&amp;nbsp; long&amp;nbsp;&lt;/font&gt;&lt;/b&gt;&lt;/p&gt;&lt;p style=&quot;margin:0px;margin-left:4px;&quot;&gt;// 消息唯一ID，可用于记录和匹配应答&lt;br&gt;&lt;/p&gt;&lt;p style=&quot;margin:0px;margin-left:4px;&quot;&gt;&lt;b&gt;&lt;font style=&quot;font-size: 14px;&quot;&gt;+ messageId() : String&amp;nbsp;&lt;/font&gt;&lt;/b&gt;&lt;/p&gt;" style="verticalAlign=top;align=left;overflow=fill;fontSize=12;fontFamily=Helvetica;html=1;whiteSpace=wrap;" vertex="1" parent="1">
          <mxGeometry x="780" y="1135" width="350" height="155" as="geometry" />
        </mxCell>
        <mxCell id="QxR6OnLQPa4rLAfjmDMy-49" value="Use" style="endArrow=open;endSize=12;dashed=1;html=1;rounded=0;exitX=1;exitY=0.5;exitDx=0;exitDy=0;entryX=0.5;entryY=1;entryDx=0;entryDy=0;" edge="1" parent="1" source="QxR6OnLQPa4rLAfjmDMy-47" target="QxR6OnLQPa4rLAfjmDMy-48">
          <mxGeometry width="160" relative="1" as="geometry">
            <mxPoint x="740" y="1230" as="sourcePoint" />
            <mxPoint x="900" y="1230" as="targetPoint" />
          </mxGeometry>
        </mxCell>
        <mxCell id="QxR6OnLQPa4rLAfjmDMy-50" value="&lt;p style=&quot;margin: 4px 0px 0px; text-align: center; font-size: 14px;&quot;&gt;&lt;b style=&quot;&quot;&gt;&lt;font style=&quot;font-size: 14px;&quot;&gt;MqttModel&lt;/font&gt;&lt;/b&gt;&lt;/p&gt;&lt;p style=&quot;margin: 4px 0px 0px; text-align: center; font-size: 14px;&quot;&gt;&lt;b style=&quot;&quot;&gt;&lt;font style=&quot;font-size: 14px;&quot;&gt;平台MQTT消息&lt;/font&gt;&lt;br&gt;&lt;/b&gt;&lt;/p&gt;&lt;hr size=&quot;1&quot;&gt;&amp;nbsp;// 平台设备标识，对应CONNECT包中的clientId&lt;p style=&quot;margin:0px;margin-left:4px;&quot;&gt;&lt;span style=&quot;background-color: initial; font-size: 14px;&quot;&gt;&lt;b&gt;+ deviceId: String&lt;/b&gt;&lt;/span&gt;&lt;br&gt;&lt;/p&gt;&amp;nbsp;// 消息发送的主题，对应PUBLISH包中的消息主题&lt;p style=&quot;margin:0px;margin-left:4px;&quot;&gt;&lt;b&gt;&lt;font style=&quot;font-size: 14px;&quot;&gt;+ topic: String&lt;/font&gt;&lt;/b&gt;&lt;br&gt;&lt;/p&gt;&amp;nbsp;// 消息服务质量，对应PUBLISH包中的Qos服务质量&lt;p style=&quot;margin: 0px 0px 0px 4px; font-size: 14px;&quot;&gt;&lt;b style=&quot;&quot;&gt;&lt;font style=&quot;font-size: 14px;&quot;&gt;+ qos: int&lt;br&gt;&lt;/font&gt;&lt;/b&gt;&lt;/p&gt;&amp;nbsp;// 消息载荷，对应客户端上报的应用数据&lt;p style=&quot;margin:0px;margin-left:4px;&quot;&gt;&lt;b&gt;&lt;font style=&quot;font-size: 14px;&quot;&gt;+ payload: bytes&lt;/font&gt;&lt;/b&gt;&lt;/p&gt;" style="verticalAlign=top;align=left;overflow=fill;fontSize=12;fontFamily=Helvetica;html=1;whiteSpace=wrap;" vertex="1" parent="1">
          <mxGeometry x="269.5" y="1110" width="300" height="179" as="geometry" />
        </mxCell>
        <mxCell id="QxR6OnLQPa4rLAfjmDMy-51" value="Use" style="endArrow=open;endSize=12;dashed=1;html=1;rounded=0;exitX=0;exitY=0.5;exitDx=0;exitDy=0;entryX=0.5;entryY=1;entryDx=0;entryDy=0;" edge="1" parent="1" source="QxR6OnLQPa4rLAfjmDMy-47" target="QxR6OnLQPa4rLAfjmDMy-50">
          <mxGeometry width="160" relative="1" as="geometry">
            <mxPoint x="232" y="1405" as="sourcePoint" />
            <mxPoint x="390" y="1236" as="targetPoint" />
          </mxGeometry>
        </mxCell>
        <mxCell id="QxR6OnLQPa4rLAfjmDMy-53" value="&lt;p style=&quot;margin:0px;margin-top:4px;text-align:center;&quot;&gt;&lt;b&gt;Class&lt;/b&gt;&lt;/p&gt;&lt;hr size=&quot;1&quot;/&gt;&lt;p style=&quot;margin:0px;margin-left:4px;&quot;&gt;+ field: Type&lt;/p&gt;&lt;hr size=&quot;1&quot;/&gt;&lt;p style=&quot;margin:0px;margin-left:4px;&quot;&gt;+ method(): Type&lt;/p&gt;" style="verticalAlign=top;align=left;overflow=fill;fontSize=12;fontFamily=Helvetica;html=1;whiteSpace=wrap;" vertex="1" parent="1">
          <mxGeometry x="1050" y="1370" width="160" height="90" as="geometry" />
        </mxCell>
        <mxCell id="QxR6OnLQPa4rLAfjmDMy-54" value="&lt;p style=&quot;margin:0px;margin-top:4px;text-align:center;&quot;&gt;&lt;b&gt;Class&lt;/b&gt;&lt;/p&gt;&lt;hr size=&quot;1&quot;/&gt;&lt;p style=&quot;margin:0px;margin-left:4px;&quot;&gt;+ field: Type&lt;/p&gt;&lt;hr size=&quot;1&quot;/&gt;&lt;p style=&quot;margin:0px;margin-left:4px;&quot;&gt;+ method(): Type&lt;/p&gt;" style="verticalAlign=top;align=left;overflow=fill;fontSize=12;fontFamily=Helvetica;html=1;whiteSpace=wrap;" vertex="1" parent="1">
          <mxGeometry x="1280" y="1270" width="160" height="90" as="geometry" />
        </mxCell>
      </root>
    </mxGraphModel>
  </diagram>
</mxfile>
